<svg width="24" height="24" viewBox="0 0 24 24" fill="none" xmlns="http://www.w3.org/2000/svg">
<path d="M5.97832 0.992504C5.71852 1.00025 5.47194 1.10886 5.29082 1.29528L1.29082 5.29534C1.10455 5.48272 1 5.73621 1 6.00042C1 6.26464 1.10455 6.51813 1.29082 6.70551L5.29082 10.7074C5.47897 10.8949 5.73382 11.0001 5.99942 10.9998C6.26502 10.9996 6.51968 10.894 6.70749 10.7061C6.8953 10.5183 7.00091 10.2637 7.00116 9.99806C7.0014 9.73246 6.89625 9.47755 6.70878 9.2894L4.42168 7.0024H20.0037V10.0648C19.9913 10.2032 20.0078 10.3426 20.0522 10.4742C20.0966 10.6058 20.168 10.7266 20.2617 10.8291C20.3554 10.9316 20.4694 11.0135 20.5965 11.0695C20.7236 11.1255 20.8609 11.1545 20.9998 11.1545C21.1387 11.1545 21.276 11.1255 21.4031 11.0695C21.5302 11.0135 21.6442 10.9316 21.7379 10.8291C21.8316 10.7266 21.903 10.6058 21.9474 10.4742C21.9918 10.3426 22.0083 10.2032 21.9959 10.0648V7.0024C21.9959 5.9117 21.0944 5.00041 20.0037 5.00041H4.41191L6.70878 2.70545C6.85215 2.56452 6.94971 2.38373 6.98875 2.18652C7.02779 1.98932 7.00649 1.78493 6.92763 1.60001C6.84877 1.41509 6.71601 1.25817 6.54667 1.14983C6.37733 1.04149 6.17927 0.986715 5.97832 0.992619V0.992504ZM17.9881 12.9887C17.7891 12.9891 17.5947 13.0489 17.4299 13.1604C17.265 13.2719 17.1372 13.4301 17.0628 13.6146C16.9883 13.7992 16.9706 14.0017 17.0119 14.1964C17.0533 14.3911 17.1517 14.569 17.2947 14.7074L19.5896 17.0043H3.9998V14.0296C4.00136 13.8963 3.97626 13.7641 3.92597 13.6407C3.87568 13.5172 3.80121 13.4051 3.70695 13.3108C3.6127 13.2165 3.50054 13.1421 3.37709 13.0918C3.25364 13.0415 3.12138 13.0164 2.98808 13.0179C2.72286 13.0211 2.46975 13.1294 2.28441 13.3191C2.09907 13.5088 1.9967 13.7644 1.9998 14.0296V17.0043C1.9998 18.095 2.9091 18.9965 3.9998 18.9965H19.5896L17.2947 21.2933C17.1952 21.3843 17.1152 21.4946 17.0594 21.6174C17.0036 21.7402 16.9733 21.8731 16.9701 22.0079C16.967 22.1428 16.9912 22.2768 17.0413 22.4021C17.0913 22.5273 17.1662 22.6412 17.2613 22.7368C17.3565 22.8324 17.47 22.9077 17.5951 22.9582C17.7201 23.0088 17.8541 23.0335 17.9889 23.0309C18.1238 23.0283 18.2567 22.9986 18.3798 22.9434C18.5028 22.8881 18.6134 22.8084 18.7049 22.7093L22.7049 18.7093C22.7983 18.6163 22.8724 18.5059 22.923 18.3842C22.9736 18.2626 22.9996 18.1321 22.9996 18.0004C22.9996 17.8686 22.9736 17.7382 22.923 17.6165C22.8724 17.4949 22.7983 17.3843 22.7049 17.2914L18.7049 13.2914C18.6117 13.1956 18.5002 13.1194 18.3771 13.0674C18.254 13.0154 18.1217 12.9887 17.9881 12.9887Z" fill="#591DF1"/>
</svg>
