<svg width="40" height="40" viewBox="0 0 40 40" fill="none" xmlns="http://www.w3.org/2000/svg">
<g clip-path="url(#clip0_209_11049)">
<path d="M31.2214 22.4977C30.6297 23.0894 30.633 24.0494 31.228 24.6444L31.7664 25.1827C31.8647 25.281 31.8664 25.4427 31.768 25.541C31.6697 25.6394 31.5097 25.6394 31.4097 25.5394L30.1547 24.2844C29.5597 23.6894 28.5997 23.6877 28.008 24.2777C27.4164 24.8694 27.4197 25.8294 28.0147 26.4244L29.2697 27.6794C29.368 27.7777 29.3697 27.9394 29.2714 28.0377C29.173 28.136 29.013 28.136 28.913 28.036L26.9397 26.0627C26.3447 25.4677 25.3847 25.466 24.793 26.056C24.2014 26.6477 24.2047 27.6077 24.7997 28.2027L26.773 30.176C26.8714 30.2744 26.873 30.436 26.7747 30.5344C26.6764 30.6327 26.5164 30.6327 26.4164 30.5327L19.4214 23.5377C18.8264 22.9427 17.8663 22.941 17.2747 23.531C16.683 24.1227 16.6863 25.0827 17.2813 25.6777L25.6997 34.096C24.5964 33.9244 22.7397 33.851 21.5997 34.9894C20.5297 36.0594 20.558 36.7994 20.8897 37.1327C21.7947 38.0377 22.4914 36.6077 26.6147 38.5777C30.738 40.5494 33.388 40.386 35.1997 38.6044L37.6964 36.1077C37.7097 36.0944 37.683 36.121 37.6964 36.1077C40.2347 33.5694 40.9614 30.0994 38.3997 27.5394C38.3947 27.5344 38.3914 27.531 38.3864 27.526L33.3647 22.5044C32.773 21.9094 31.813 21.9077 31.2214 22.4977Z" fill="#591DF1"/>
<path d="M31.6667 0H5C2.23833 0 0 2.23833 0 5C0 7.76167 2.23833 10 5 10H31.6667C34.4283 10 36.6667 7.76167 36.6667 5C36.6667 2.23833 34.4283 0 31.6667 0ZM5 6.66667C4.08 6.66667 3.33333 5.92 3.33333 5C3.33333 4.08 4.08 3.33333 5 3.33333C5.92 3.33333 6.66667 4.08 6.66667 5C6.66667 5.92 5.92 6.66667 5 6.66667ZM11.6667 6.66667C10.7467 6.66667 10 5.92 10 5C10 4.08 10.7467 3.33333 11.6667 3.33333C12.5867 3.33333 13.3333 4.08 13.3333 5C13.3333 5.92 12.5867 6.66667 11.6667 6.66667Z" fill="#591DF1"/>
<path d="M31.6667 13.334H5C2.23333 13.334 0 15.5673 0 18.334C0 21.1007 2.23333 23.334 5 23.334H13.6667C13.8833 22.534 14.3167 21.784 14.9167 21.184C16.8167 19.284 19.8833 19.284 21.7833 21.184L23.5 22.9007C24.05 22.584 24.6667 22.384 25.3 22.3173C25.9683 21.4273 27.1317 20.709 28.5167 20.534C29.9683 18.5973 33.275 17.6923 36.1333 20.5507C36.4833 19.884 36.6667 19.134 36.6667 18.334C36.6667 15.5673 34.4333 13.334 31.6667 13.334ZM5 20.0007C4.08333 20.0007 3.33333 19.2507 3.33333 18.334C3.33333 17.4173 4.08333 16.6673 5 16.6673C5.91667 16.6673 6.66667 17.4173 6.66667 18.334C6.66667 19.2507 5.91667 20.0007 5 20.0007ZM11.6667 20.0007C10.75 20.0007 10 19.2507 10 18.334C10 17.4173 10.75 16.6673 11.6667 16.6673C12.5833 16.6673 13.3333 17.4173 13.3333 18.334C13.3333 19.2507 12.5833 20.0007 11.6667 20.0007Z" fill="#591DF1"/>
<path d="M14.9333 28.0327C14.5333 27.6327 14.2 27.166 13.9667 26.666H5C2.23333 26.666 0 28.8993 0 31.666C0 34.4327 2.23333 36.666 5 36.666H17.35C17.35 34.9993 18.5017 33.086 19.3833 32.4993L14.9333 28.0327ZM5 33.3327C4.08333 33.3327 3.33333 32.5827 3.33333 31.666C3.33333 30.7493 4.08333 29.9993 5 29.9993C5.91667 29.9993 6.66667 30.7493 6.66667 31.666C6.66667 32.5827 5.91667 33.3327 5 33.3327ZM11.6667 33.3327C10.75 33.3327 10 32.5827 10 31.666C10 30.7493 10.75 29.9993 11.6667 29.9993C12.5833 29.9993 13.3333 30.7493 13.3333 31.666C13.3333 32.5827 12.5833 33.3327 11.6667 33.3327Z" fill="#591DF1"/>
</g>
<defs>
<clipPath id="clip0_209_11049">
<rect width="40" height="40" fill="white"/>
</clipPath>
</defs>
</svg>
