<svg width="40" height="40" viewBox="0 0 40 40" fill="none" xmlns="http://www.w3.org/2000/svg">
<g clip-path="url(#clip0_209_10830)">
<path d="M31.2217 22.4977C30.6301 23.0894 30.6334 24.0494 31.2284 24.6444L31.7667 25.1827C31.8651 25.281 31.8667 25.4427 31.7684 25.541C31.6701 25.6394 31.5101 25.6394 31.4101 25.5394L30.1551 24.2844C29.5601 23.6894 28.6001 23.6877 28.0084 24.2777C27.4167 24.8694 27.4201 25.8294 28.0151 26.4244L29.2701 27.6794C29.3684 27.7777 29.3701 27.9394 29.2717 28.0377C29.1734 28.136 29.0134 28.136 28.9134 28.036L26.9401 26.0627C26.3451 25.4677 25.3851 25.466 24.7934 26.056C24.2017 26.6477 24.2051 27.6077 24.8001 28.2027L26.7734 30.176C26.8717 30.2744 26.8734 30.436 26.7751 30.5344C26.6767 30.6327 26.5167 30.6327 26.4167 30.5327L19.4217 23.5377C18.8267 22.9427 17.8667 22.941 17.275 23.531C16.6834 24.1227 16.6867 25.0827 17.2817 25.6777L25.7001 34.096C24.5967 33.9244 22.7401 33.851 21.6001 34.9894C20.5301 36.0594 20.5584 36.7994 20.8901 37.1327C21.7951 38.0377 22.4917 36.6077 26.6151 38.5777C30.7384 40.5494 33.3884 40.386 35.2001 38.6044L37.6967 36.1077C37.7101 36.0944 37.6834 36.121 37.6967 36.1077C40.2351 33.5694 40.9617 30.0994 38.4001 27.5394C38.3951 27.5344 38.3917 27.531 38.3867 27.526L33.3651 22.5044C32.7734 21.9094 31.8134 21.9077 31.2217 22.4977Z" fill="#888888"/>
<path d="M31.6667 0H5C2.23833 0 0 2.23833 0 5C0 7.76167 2.23833 10 5 10H31.6667C34.4283 10 36.6667 7.76167 36.6667 5C36.6667 2.23833 34.4283 0 31.6667 0ZM5 6.66667C4.08 6.66667 3.33333 5.92 3.33333 5C3.33333 4.08 4.08 3.33333 5 3.33333C5.92 3.33333 6.66667 4.08 6.66667 5C6.66667 5.92 5.92 6.66667 5 6.66667ZM11.6667 6.66667C10.7467 6.66667 10 5.92 10 5C10 4.08 10.7467 3.33333 11.6667 3.33333C12.5867 3.33333 13.3333 4.08 13.3333 5C13.3333 5.92 12.5867 6.66667 11.6667 6.66667Z" fill="#888888"/>
<path d="M31.6667 13.334H5C2.23333 13.334 0 15.5673 0 18.334C0 21.1007 2.23333 23.334 5 23.334H13.6667C13.8833 22.534 14.3167 21.784 14.9167 21.184C16.8167 19.284 19.8833 19.284 21.7833 21.184L23.5 22.9007C24.05 22.584 24.6667 22.384 25.3 22.3173C25.9683 21.4273 27.1317 20.709 28.5167 20.534C29.9683 18.5973 33.275 17.6923 36.1333 20.5507C36.4833 19.884 36.6667 19.134 36.6667 18.334C36.6667 15.5673 34.4333 13.334 31.6667 13.334ZM5 20.0007C4.08333 20.0007 3.33333 19.2507 3.33333 18.334C3.33333 17.4173 4.08333 16.6673 5 16.6673C5.91667 16.6673 6.66667 17.4173 6.66667 18.334C6.66667 19.2507 5.91667 20.0007 5 20.0007ZM11.6667 20.0007C10.75 20.0007 10 19.2507 10 18.334C10 17.4173 10.75 16.6673 11.6667 16.6673C12.5833 16.6673 13.3333 17.4173 13.3333 18.334C13.3333 19.2507 12.5833 20.0007 11.6667 20.0007Z" fill="#888888"/>
<path d="M14.9333 28.0327C14.5333 27.6327 14.2 27.166 13.9667 26.666H5C2.23333 26.666 0 28.8993 0 31.666C0 34.4327 2.23333 36.666 5 36.666H17.35C17.35 34.9993 18.5017 33.086 19.3833 32.4993L14.9333 28.0327ZM5 33.3327C4.08333 33.3327 3.33333 32.5827 3.33333 31.666C3.33333 30.7493 4.08333 29.9993 5 29.9993C5.91667 29.9993 6.66667 30.7493 6.66667 31.666C6.66667 32.5827 5.91667 33.3327 5 33.3327ZM11.6667 33.3327C10.75 33.3327 10 32.5827 10 31.666C10 30.7493 10.75 29.9993 11.6667 29.9993C12.5833 29.9993 13.3333 30.7493 13.3333 31.666C13.3333 32.5827 12.5833 33.3327 11.6667 33.3327Z" fill="#888888"/>
</g>
<defs>
<clipPath id="clip0_209_10830">
<rect width="40" height="40" fill="white"/>
</clipPath>
</defs>
</svg>
