<svg width="40" height="40" viewBox="0 0 40 40" fill="none" xmlns="http://www.w3.org/2000/svg">
<path d="M19.9999 19.131C23.3617 19.131 26.0869 16.4058 26.0869 13.044C26.0869 9.68227 23.3617 6.95703 19.9999 6.95703C16.6382 6.95703 13.913 9.68227 13.913 13.044C13.913 16.4058 16.6382 19.131 19.9999 19.131Z" fill="#591DF1"/>
<path d="M32.174 22.6077C34.5752 22.6077 36.5218 20.6611 36.5218 18.2599C36.5218 15.8587 34.5752 13.9121 32.174 13.9121C29.7727 13.9121 27.8262 15.8587 27.8262 18.2599C27.8262 20.6611 29.7727 22.6077 32.174 22.6077Z" fill="#591DF1"/>
<path d="M7.9496 22.6077C10.3508 22.6077 12.2974 20.6611 12.2974 18.2599C12.2974 15.8587 10.3508 13.9121 7.9496 13.9121C5.54838 13.9121 3.60181 15.8587 3.60181 18.2599C3.60181 20.6611 5.54838 22.6077 7.9496 22.6077Z" fill="#591DF1"/>
<path d="M19.9999 20.8691C13.7669 20.8691 8.69556 25.9404 8.69556 32.1735C8.69556 32.6535 9.08515 33.0431 9.56515 33.0431H30.4347C30.9147 33.0431 31.3043 32.6535 31.3043 32.1735C31.3043 25.9404 26.233 20.8691 19.9999 20.8691Z" fill="#591DF1"/>
<path d="M9.44869 24.5355C8.91651 24.4224 8.37562 24.3477 7.82608 24.3477C3.5113 24.3477 0 27.859 0 32.1737C0 32.6537 0.389592 33.0433 0.869592 33.0433H7.11652C7.0191 32.7703 6.95649 32.4798 6.95649 32.1737C6.95649 29.3198 7.88869 26.685 9.44869 24.5355Z" fill="#591DF1"/>
<path d="M32.1739 24.3477C31.6243 24.3477 31.0834 24.4224 30.5513 24.5355C32.1113 26.685 33.0435 29.3198 33.0435 32.1737C33.0435 32.4798 32.9809 32.7702 32.8834 33.0433H39.1304C39.6104 33.0433 40 32.6537 40 32.1737C40 27.859 36.4887 24.3477 32.1739 24.3477Z" fill="#591DF1"/>
</svg>
